<?xml version="1.0" encoding="UTF-8"?>
<svg width="191px" height="64px" viewBox="0 0 191 64" version="1.1" xmlns="http://www.w3.org/2000/svg" xmlns:xlink="http://www.w3.org/1999/xlink">
    <title>download app store</title>
    <g id="download-app-store" stroke="none" stroke-width="1" fill="none" fill-rule="evenodd">
        <path d="M13.319426,1.25 L177.680574,1.25 C181.92577,1.25 183.475721,1.6655029 185.030529,2.49702342 C186.527524,3.29762512 187.702375,4.47247559 188.502977,5.96947063 C189.334497,7.52427881 189.75,9.07423022 189.75,13.319426 L189.75,50.680574 C189.75,54.9257698 189.334497,56.4757212 188.502977,58.0305294 C187.702375,59.5275244 186.527524,60.7023749 185.030529,61.5029766 C183.475721,62.3344971 181.92577,62.75 177.680574,62.75 L13.319426,62.75 C9.07423022,62.75 7.52427881,62.3344971 5.96947063,61.5029766 C4.47247559,60.7023749 3.29762512,59.5275244 2.49702342,58.0305294 C1.6655029,56.4757212 1.25,54.9257698 1.25,50.680574 L1.25,13.319426 C1.25,9.07423022 1.6655029,7.52427881 2.49702342,5.96947063 C3.29762512,4.47247559 4.47247559,3.29762512 5.96947063,2.49702342 C7.52427881,1.6655029 9.07423022,1.25 13.319426,1.25 Z" id="Rectangle" stroke="#444444" stroke-width="1.5" fill="#FFFFFF" fill-rule="nonzero"></path>
        <path d="M60.640123,15.4220163 L57.769638,15.4220163 L57.769638,24.2542779 L60.640123,24.2542779 C63.7590154,24.2542779 65.401264,22.2946199 65.401264,19.8243467 C65.401264,17.367874 63.7590154,15.4220163 60.640123,15.4220163 Z M59.0116748,23.2468481 L59.0116748,16.4294462 L60.4193165,16.4294462 C62.9447913,16.4294462 64.1040256,17.7956866 64.1040256,19.8243467 C64.1040256,21.8668072 62.9447913,23.2468481 60.4193165,23.2468481 L59.0116748,23.2468481 Z M70.0520129,24.4198828 C71.9978705,24.4198828 73.3503105,22.9708399 73.3503105,21.1353856 C73.3503105,19.3137316 71.9978705,17.8508883 70.0520129,17.8508883 C68.0785544,17.8508883 66.7399148,19.3137316 66.7399148,21.1353856 C66.7399148,22.9708399 68.0785544,24.4198828 70.0520129,24.4198828 Z M70.0520129,23.3986526 C68.8237765,23.3986526 67.9819516,22.4050232 67.9819516,21.1353856 C67.9819516,19.8657479 68.8237765,18.8721185 70.0520129,18.8721185 C71.2526484,18.8721185 72.1082738,19.8657479 72.1082738,21.1353856 C72.1082738,22.4050232 71.2526484,23.3986526 70.0520129,23.3986526 Z M80.899143,22.7086321 L79.4639005,18.0164932 L78.4426702,18.0164932 L76.9936273,22.7086321 L75.3927799,18.0164932 L74.1231423,18.0164932 L76.4968126,24.2542779 L77.4766416,24.2542779 L78.9532853,19.396534 L80.4161287,24.2542779 L81.4097581,24.2542779 L83.7834284,18.0164932 L82.5137908,18.0164932 L80.899143,22.7086321 Z M88.130569,17.8508883 C87.2473428,17.8508883 86.5849232,18.2234993 86.2123122,18.7617153 L86.0605077,18.0164932 L85.025477,18.0164932 L85.025477,24.2542779 L86.2123122,24.2542779 L86.2123122,20.3763631 C86.3227154,19.2447296 87.0955383,18.8721185 87.8407604,18.8721185 C88.8481902,18.8721185 89.2898033,19.6173406 89.2898033,20.6523712 L89.2898033,24.2542779 L90.4766385,24.2542779 L90.4766385,20.4177643 C90.4766385,18.4581063 89.2346017,17.8508883 88.130569,17.8508883 Z M93.5403376,24.2542779 L93.5403376,14.87 L92.3535024,14.87 L92.3535024,24.2542779 L93.5403376,24.2542779 Z M98.4532867,24.4198828 C100.399144,24.4198828 101.751584,22.9708399 101.751584,21.1353856 C101.751584,19.3137316 100.399144,17.8508883 98.4532867,17.8508883 C96.4798283,17.8508883 95.1411887,19.3137316 95.1411887,21.1353856 C95.1411887,22.9708399 96.4798283,24.4198828 98.4532867,24.4198828 Z M98.4532867,23.3986526 C97.2250504,23.3986526 96.3832254,22.4050232 96.3832254,21.1353856 C96.3832254,19.8657479 97.2250504,18.8721185 98.4532867,18.8721185 C99.6539223,18.8721185 100.509548,19.8657479 100.509548,21.1353856 C100.509548,22.4050232 99.6539223,23.3986526 98.4532867,23.3986526 Z M105.270698,24.3784816 C106.153924,24.3784816 106.995749,24.0472718 107.423561,23.4400538 L107.616767,24.2542779 L108.610397,24.2542779 L108.610397,20.4867663 C108.610397,18.720314 107.71337,17.8508883 105.905517,17.8508883 C104.99469,17.8508883 104.249467,18.0716948 103.66985,18.5547091 L104.208066,19.396534 C104.622079,19.0377234 105.160294,18.8583181 105.781313,18.8583181 C106.816343,18.8583181 107.423561,19.3413324 107.423561,20.2107582 L107.423561,20.7627745 L107.271757,20.7075729 C104.511675,19.631141 103.035032,21.0663835 103.035032,22.3912227 C103.035032,23.5642575 104.028661,24.3784816 105.270698,24.3784816 Z M105.588107,23.4400538 C104.732482,23.4400538 104.277068,22.9294387 104.277068,22.3084203 C104.277068,21.5769986 105.146494,20.7765749 107.230356,21.521797 L107.423561,21.590799 L107.423561,21.7702044 C107.423561,22.8604366 106.540335,23.4400538 105.588107,23.4400538 Z M115.124198,18.8169169 C114.641183,18.2096989 113.923562,17.8508883 112.998935,17.8508883 C111.384287,17.8508883 110.087049,19.1067255 110.087049,21.1353855 C110.087049,23.1502452 111.384287,24.392282 112.998935,24.392282 C113.951163,24.392282 114.696385,23.9920701 115.179399,23.3572513 L115.331204,24.2542779 L116.311033,24.2542779 L116.311033,14.87 L115.124198,14.87 L115.124198,18.8169169 Z M113.274943,23.3848522 C112.074307,23.3848522 111.301485,22.4050231 111.301485,21.1353855 C111.301485,19.8519475 112.074307,18.8583181 113.274943,18.8583181 C114.503179,18.8583181 115.289803,19.8519475 115.289803,21.1353855 C115.289803,22.4050231 114.503179,23.3848522 113.274943,23.3848522 Z M124.591291,24.4198828 C126.537149,24.4198828 127.889589,22.9708399 127.889589,21.1353856 C127.889589,19.3137316 126.537149,17.8508883 124.591291,17.8508883 C122.617833,17.8508883 121.279193,19.3137316 121.279193,21.1353856 C121.279193,22.9708399 122.617833,24.4198828 124.591291,24.4198828 Z M124.591291,23.3986526 C123.363055,23.3986526 122.52123,22.4050232 122.52123,21.1353856 C122.52123,19.8657479 123.363055,18.8721185 124.591291,18.8721185 C125.791927,18.8721185 126.647552,19.8657479 126.647552,21.1353856 C126.647552,22.4050232 125.791927,23.3986526 124.591291,23.3986526 Z M132.540335,17.8508883 C131.657109,17.8508883 130.99469,18.2234993 130.622079,18.7617153 L130.470274,18.0164932 L129.435243,18.0164932 L129.435243,24.2542779 L130.622079,24.2542779 L130.622079,20.3763631 C130.732482,19.2447296 131.505305,18.8721185 132.250527,18.8721185 C133.257957,18.8721185 133.69957,19.6173406 133.69957,20.6523712 L133.69957,24.2542779 L134.886405,24.2542779 L134.886405,20.4177643 C134.886405,18.4581063 133.644368,17.8508883 132.540335,17.8508883 Z M143.470272,18.0164932 L141.952227,18.0164932 L141.952227,16.2362405 L140.765391,16.2362405 L140.765391,18.0164932 L139.799363,18.0164932 L139.799363,18.9963222 L140.765391,18.9963222 L140.765391,21.9220088 C140.765391,24.1852759 142.269636,24.4474836 143.470272,24.2542779 L143.470272,23.2744489 C142.269636,23.4538542 141.952227,22.9018379 141.952227,21.9220088 L141.952227,18.9963222 L143.470272,18.9963222 L143.470272,18.0164932 Z M148.024412,17.8508883 C147.141186,17.8508883 146.478766,18.2234993 146.092355,18.7755157 L146.092355,14.87 L144.905519,14.87 L144.905519,24.2542779 L146.092355,24.2542779 L146.092355,20.6661716 C146.092355,19.3137316 146.93418,18.8721185 147.734603,18.8721185 C148.742033,18.8721185 149.183646,19.6173406 149.183646,20.6523712 L149.183646,24.2542779 L150.370481,24.2542779 L150.370481,20.4177643 C150.370481,18.4581063 149.128444,17.8508883 148.024412,17.8508883 Z M158.043517,20.9697806 C158.043517,19.1619271 156.815281,17.8508883 155.021227,17.8508883 C153.171973,17.8508883 151.860934,19.3137316 151.860934,21.1353855 C151.860934,22.9570395 153.158172,24.4060824 155.159232,24.4060824 C156.235663,24.4060824 157.14649,24.019671 157.712307,23.3848522 L156.870482,22.6948317 C156.45647,23.177846 155.890653,23.412453 155.159232,23.412453 C153.930995,23.412453 153.185773,22.5430272 153.102971,21.3699925 L158.043517,21.3699925 L158.043517,20.9697806 Z M155.021227,18.8445177 C156.042458,18.8445177 156.718678,19.4655361 156.856682,20.5143671 L153.171973,20.5143671 C153.378979,19.5345381 154.055199,18.8445177 155.021227,18.8445177 Z" id="Combined-Shape" fill="#444444" fill-rule="nonzero"></path>
        <path d="M72.8301289,46.3335233 L66.1156993,29.348405 L62.7186756,29.348405 L56.004246,46.3335233 L59.6135837,46.3335233 L60.9936245,42.432254 L67.8407504,42.432254 L69.2207912,46.3335233 L72.8301289,46.3335233 Z M64.4171875,32.8515856 L66.9118767,39.8844862 L61.9224982,39.8844862 L64.4171875,32.8515856 Z M82.6496719,33.8335378 C80.8715423,33.8335378 79.5445799,34.5235582 78.6422455,35.6116674 L78.376853,34.1520087 L75.6167713,34.1520087 L75.6167713,51.9067653 L78.7749417,51.9067653 L78.7749417,45.006561 C79.6772761,45.9619739 80.9776993,46.5989158 82.6496719,46.5989158 C85.8078423,46.5989158 88.3025316,44.2369228 88.3025316,40.2294964 C88.3025316,36.2220701 85.8078423,33.8335378 82.6496719,33.8335378 Z M81.8004159,43.9449911 C79.8099724,43.9449911 78.4564708,42.4057147 78.4564708,40.2294964 C78.4564708,38.0532781 79.8099724,36.4874625 81.8004159,36.4874625 C83.7643203,36.4874625 85.0912826,38.0532781 85.0912826,40.2294964 C85.0912826,42.4057147 83.7643203,43.9449911 81.8004159,43.9449911 Z M97.8832175,33.8335378 C96.1050879,33.8335378 94.7781256,34.5235582 93.8757911,35.6116674 L93.6103987,34.1520087 L90.8503169,34.1520087 L90.8503169,51.9067653 L94.0084874,51.9067653 L94.0084874,45.006561 C94.9108218,45.9619739 96.2112449,46.5989158 97.8832175,46.5989158 C101.041388,46.5989158 103.536077,44.2369228 103.536077,40.2294964 C103.536077,36.2220701 101.041388,33.8335378 97.8832175,33.8335378 Z M97.0339616,43.9449911 C95.043518,43.9449911 93.6900164,42.4057147 93.6900164,40.2294964 C93.6900164,38.0532781 95.043518,36.4874625 97.0339616,36.4874625 C98.9978659,36.4874625 100.324828,38.0532781 100.324828,40.2294964 C100.324828,42.4057147 98.9978659,43.9449911 97.0339616,43.9449911 Z M118.265385,46.7050728 C120.998927,46.7050728 124.130558,45.2454142 124.130558,41.5564588 C124.130558,38.902534 122.219732,37.4959539 119.565808,36.5140018 C117.309972,35.7178244 116.115705,34.9747254 116.115705,33.7273808 C116.115705,32.5331147 117.230354,31.710398 118.583855,31.710398 C119.804661,31.710398 120.760074,32.1615652 121.848183,33.1700566 L123.891705,30.9672991 C122.564743,29.7995722 120.89277,28.923777 118.477699,28.923777 C115.478764,28.923777 112.692143,30.9672991 112.692143,33.9131555 C112.692143,36.9120905 115.107214,38.0532781 117.654982,38.9556125 C119.353494,39.5660152 120.600838,40.2294964 120.600838,41.7422335 C120.600838,43.2018921 119.167719,43.8919126 117.893835,43.8919126 C116.434176,43.8919126 115.133753,43.3611276 113.912948,41.8483905 L111.763269,44.1042266 C113.435241,45.8823561 115.531842,46.7050728 118.265385,46.7050728 Z M134.560499,34.1520087 L131.561565,34.1520087 L131.561565,30.6488281 L128.429933,30.6488281 L128.429933,34.1520087 L126.572186,34.1520087 L126.572186,36.5936195 L128.429933,36.5936195 L128.429933,41.5299196 C128.429933,45.9885131 131.428868,46.9173868 134.560499,46.3335233 L134.560499,43.9184518 C132.41082,44.263462 131.561565,43.3876669 131.561565,41.4237626 L131.561565,36.5936195 L134.560499,36.5936195 L134.560499,34.1520087 Z M142.893834,46.7050728 C146.821643,46.7050728 149.528646,43.9184518 149.528646,40.2825749 C149.528646,36.6201588 146.821643,33.8335378 142.893834,33.8335378 C138.966026,33.8335378 136.259022,36.6201588 136.259022,40.2825749 C136.259022,43.9184518 138.966026,46.7050728 142.893834,46.7050728 Z M142.893834,44.0246088 C140.903391,44.0246088 139.496811,42.432254 139.496811,40.2825749 C139.496811,38.1063566 140.903391,36.5140018 142.893834,36.5140018 C144.884278,36.5140018 146.290858,38.1063566 146.290858,40.2825749 C146.290858,42.432254 144.884278,44.0246088 142.893834,44.0246088 Z M158.445851,33.8335378 C157.012732,33.8335378 155.898083,34.8154899 155.208063,35.8505206 L154.836513,34.1520087 L152.076432,34.1520087 L152.076432,46.3335233 L155.234602,46.3335233 L155.234602,40.3091142 C155.234602,38.1594351 156.322711,36.859012 158.180459,36.859012 C158.605086,36.859012 159.003175,36.9386297 159.321646,37.0447867 L159.799353,34.0193125 C159.427803,33.9131555 159.029714,33.8335378 158.445851,33.8335378 Z M173.254762,40.1498787 C173.254762,36.328227 170.706994,33.8335378 167.097656,33.8335378 C163.355622,33.8335378 160.675158,36.6201588 160.675158,40.2825749 C160.675158,43.9184518 163.329083,46.6785336 167.469206,46.6785336 C169.645424,46.6785336 171.317397,45.9619739 172.485124,44.794247 L170.361984,43.0691959 C169.618885,43.8653733 168.690011,44.2900013 167.416127,44.2900013 C165.399144,44.2900013 164.204878,42.9895782 163.966025,41.0256739 L173.254762,41.0256739 L173.254762,40.1498787 Z M167.097656,36.2220701 C168.849247,36.2220701 169.910817,37.3101792 170.14967,39.008691 L164.045643,39.008691 C164.390653,37.3367184 165.452223,36.2220701 167.097656,36.2220701 Z" id="Combined-Shape" fill="#444444" fill-rule="nonzero"></path>
        <path d="M40.3556128,31.1765033 C40.3934366,28.2939976 41.9324531,25.6314402 44.4334656,24.1216618 C42.8485221,21.8990348 40.2890173,20.540363 37.5270681,20.455512 C34.6212622,20.1560125 31.8042327,22.1628395 30.3234571,22.1628395 C28.8140602,22.1628395 26.5342313,20.4852496 24.0792128,20.5348394 C20.8490683,20.6373115 17.9106986,22.3968958 16.3391666,25.1698124 C12.9926076,30.8591611 15.4888443,39.2206247 18.6946259,43.8195041 C20.2985567,46.0714372 22.1730764,48.5868908 24.6258817,48.4976945 C27.026087,48.3999364 27.9225197,46.9948535 30.8197559,46.9948535 C33.6901178,46.9948535 34.531138,48.4976945 37.0337147,48.4409808 C39.6092595,48.3999364 41.2319439,46.1790479 42.7796304,43.905792 C43.9320531,42.3012118 44.81884,40.5278005 45.4071429,38.6512488 C42.3481844,37.3808662 40.3591727,34.4377271 40.3556128,31.1765033 Z M35.6287527,17.4309909 C37.0330507,15.7756962 37.7248982,13.6480888 37.5573702,11.5 C35.4119347,11.7212587 33.4301529,12.728086 32.0068956,14.3198713 C30.6014925,15.8903833 29.8895193,17.9450345 30.0277913,20.0312782 C32.2019843,20.0532534 34.2663336,19.0948643 35.6287527,17.4309909 Z" id="Combined-Shape" fill="#444444" fill-rule="nonzero"></path>
    </g>
</svg>