<?xml version="1.0" encoding="UTF-8"?>
<svg width="243px" height="64px" viewBox="0 0 243 64" version="1.1" xmlns="http://www.w3.org/2000/svg" xmlns:xlink="http://www.w3.org/1999/xlink">
    <title>download mac app store</title>
    <g id="download-mac-app-store" stroke="none" stroke-width="1" fill="none" fill-rule="evenodd">
        <path d="M229.680574,1.25 C233.92577,1.25 235.475721,1.6655029 237.030529,2.49702342 C238.527524,3.29762512 239.702375,4.47247559 240.502977,5.96947063 C241.334497,7.52427881 241.75,9.07423022 241.75,13.319426 L241.75,50.680574 C241.75,54.9257698 241.334497,56.4757212 240.502977,58.0305294 C239.702375,59.5275244 238.527524,60.7023749 237.030529,61.5029766 C235.475721,62.3344971 233.92577,62.75 229.680574,62.75 L13.319426,62.75 C9.07423022,62.75 7.52427881,62.3344971 5.96947063,61.5029766 C4.47247559,60.7023749 3.29762512,59.5275244 2.49702342,58.0305294 C1.6655029,56.4757212 1.25,54.9257698 1.25,50.680574 L1.25,13.319426 C1.25,9.07423022 1.6655029,7.52427881 2.49702342,5.96947063 C3.29762512,4.47247559 4.47247559,3.29762512 5.96947063,2.49702342 C7.52427881,1.6655029 9.07423022,1.25 13.319426,1.25 L229.680574,1.25 Z" id="Rectangle" stroke="#444444" stroke-width="1.5" fill="#FFFFFF" fill-rule="nonzero"></path>
        <g id="Download-on-the" transform="translate(56.274, 14.864)" fill="#434444" fill-rule="nonzero">
            <path d="M2.86,0.559 L0,0.559 L0,9.386 L2.86,9.386 C5.98,9.386 7.631,7.423 7.631,4.953 C7.631,2.496 5.98,0.559 2.86,0.559 Z M1.235,8.385 L1.235,1.56 L2.639,1.56 C5.174,1.56 6.331,2.925 6.331,4.953 C6.331,6.994 5.174,8.385 2.639,8.385 L1.235,8.385 Z" id="Shape"></path>
            <path d="M12.272,9.555 C14.222,9.555 15.574,8.099 15.574,6.266 C15.574,4.446 14.222,2.977 12.272,2.977 C10.309,2.977 8.97,4.446 8.97,6.266 C8.97,8.099 10.309,9.555 12.272,9.555 Z M10.205,6.266 C10.205,4.992 11.05,4.004 12.272,4.004 C13.481,4.004 14.339,4.992 14.339,6.266 C14.339,7.54 13.481,8.528 12.272,8.528 C11.05,8.528 10.205,7.54 10.205,6.266 Z" id="Shape"></path>
            <polygon id="Path" points="26 3.146 24.739 3.146 23.127 7.839 21.684 3.146 20.67 3.146 19.214 7.839 17.615 3.146 16.341 3.146 18.72 9.386 19.695 9.386 21.177 4.524 22.633 9.386 23.634 9.386"></polygon>
            <path d="M30.355,2.977 C29.471,2.977 28.808,3.354 28.431,3.887 L28.288,3.146 L27.248,3.146 L27.248,9.386 L28.431,9.386 L28.431,5.512 C28.548,4.381 29.315,4.004 30.069,4.004 C31.07,4.004 31.512,4.745 31.512,5.785 L31.512,9.386 L32.708,9.386 L32.708,5.551 C32.708,3.588 31.46,2.977 30.355,2.977 Z" id="Path"></path>
            <polygon id="Path" points="34.567 0 34.567 9.386 35.763 9.386 35.763 0"></polygon>
            <path d="M40.664,9.555 C42.614,9.555 43.966,8.099 43.966,6.266 C43.966,4.446 42.614,2.977 40.664,2.977 C38.701,2.977 37.362,4.446 37.362,6.266 C37.362,8.099 38.701,9.555 40.664,9.555 Z M38.597,6.266 C38.597,4.992 39.442,4.004 40.664,4.004 C41.873,4.004 42.731,4.992 42.731,6.266 C42.731,7.54 41.873,8.528 40.664,8.528 C39.442,8.528 38.597,7.54 38.597,6.266 Z" id="Shape"></path>
            <path d="M47.489,9.516 C48.373,9.516 49.218,9.178 49.647,8.567 L49.829,9.386 L50.83,9.386 L50.83,5.616 C50.83,3.848 49.933,2.977 48.126,2.977 C47.216,2.977 46.462,3.198 45.89,3.692 L46.423,4.524 C46.839,4.173 47.372,3.991 47.996,3.991 C49.036,3.991 49.647,4.472 49.647,5.343 L49.647,5.889 L49.491,5.837 C46.735,4.758 45.253,6.201 45.253,7.527 C45.253,8.697 46.241,9.516 47.489,9.516 Z M46.501,7.436 C46.501,6.708 47.359,5.902 49.452,6.656 L49.647,6.721 L49.647,6.903 C49.647,7.995 48.763,8.567 47.801,8.567 C46.956,8.567 46.501,8.06 46.501,7.436 Z" id="Shape"></path>
            <path d="M58.526,0 L57.343,0 L57.343,3.952 C56.862,3.341 56.147,2.977 55.224,2.977 C53.599,2.977 52.312,4.238 52.312,6.266 C52.312,8.281 53.599,9.529 55.224,9.529 C56.173,9.529 56.914,9.126 57.395,8.489 L57.551,9.386 L58.526,9.386 L58.526,0 Z M53.521,6.266 C53.521,4.979 54.301,3.991 55.497,3.991 C56.719,3.991 57.512,4.979 57.512,6.266 C57.512,7.54 56.719,8.515 55.497,8.515 C54.301,8.515 53.521,7.54 53.521,6.266 Z" id="Shape"></path>
            <path d="M66.807,9.555 C68.757,9.555 70.109,8.099 70.109,6.266 C70.109,4.446 68.757,2.977 66.807,2.977 C64.844,2.977 63.505,4.446 63.505,6.266 C63.505,8.099 64.844,9.555 66.807,9.555 Z M64.74,6.266 C64.74,4.992 65.585,4.004 66.807,4.004 C68.016,4.004 68.874,4.992 68.874,6.266 C68.874,7.54 68.016,8.528 66.807,8.528 C65.585,8.528 64.74,7.54 64.74,6.266 Z" id="Shape"></path>
            <path d="M74.763,2.977 C73.879,2.977 73.216,3.354 72.839,3.887 L72.696,3.146 L71.656,3.146 L71.656,9.386 L72.839,9.386 L72.839,5.512 C72.956,4.381 73.723,4.004 74.477,4.004 C75.478,4.004 75.92,4.745 75.92,5.785 L75.92,9.386 L77.116,9.386 L77.116,5.551 C77.116,3.588 75.868,2.977 74.763,2.977 Z" id="Path"></path>
            <path d="M84.162,7.059 L84.162,4.134 L85.683,4.134 L85.683,3.146 L84.162,3.146 L84.162,1.365 L82.979,1.365 L82.979,3.146 L82.017,3.146 L82.017,4.134 L82.979,4.134 L82.979,7.059 C82.979,9.321 84.487,9.581 85.683,9.386 L85.683,8.411 C84.487,8.58 84.162,8.034 84.162,7.059 Z" id="Path"></path>
            <path d="M90.233,2.977 C89.349,2.977 88.686,3.354 88.296,3.913 L88.296,0 L87.113,0 L87.113,9.386 L88.296,9.386 L88.296,5.798 C88.296,4.446 89.141,4.004 89.947,4.004 C90.948,4.004 91.39,4.745 91.39,5.785 L91.39,9.386 L92.586,9.386 L92.586,5.551 C92.586,3.588 91.338,2.977 90.233,2.977 Z" id="Path"></path>
            <path d="M95.316,6.5 L100.256,6.5 L100.256,6.097 C100.256,4.29 99.034,2.977 97.24,2.977 C95.394,2.977 94.081,4.446 94.081,6.266 C94.081,8.086 95.368,9.542 97.37,9.542 C98.449,9.542 99.359,9.152 99.931,8.515 L99.086,7.826 C98.67,8.307 98.111,8.541 97.37,8.541 C96.148,8.541 95.407,7.67 95.316,6.5 Z M95.394,5.642 C95.589,4.667 96.265,3.978 97.24,3.978 C98.254,3.978 98.93,4.602 99.073,5.642 L95.394,5.642 Z" id="Shape"></path>
        </g>
        <path d="M64.8699451,42.2730185 L59.6151741,29.348405 L55.952758,29.348405 L55.952758,46.3335233 L59.1905462,46.3335233 L59.1905462,35.1605002 L63.8083752,46.3335233 L65.931515,46.3335233 L70.5493441,35.1605002 L70.5493441,46.3335233 L73.7871323,46.3335233 L73.7871323,29.348405 L70.1247162,29.348405 L64.8699451,42.2730185 Z M81.0058329,46.5723766 C82.6778055,46.5723766 84.2436211,45.9885131 85.0663378,44.8207862 L85.4909657,46.3335233 L88.197969,46.3335233 L88.197969,39.1944658 C88.197969,35.6382066 86.3136824,33.8335378 82.5981878,33.8335378 C80.7669797,33.8335378 79.2011641,34.3112442 78.0068979,35.2401179 L79.3073211,37.3367184 C80.1300377,36.646698 81.1385291,36.3016878 82.2797168,36.3016878 C84.0578464,36.3016878 85.0663378,37.1509437 85.0663378,38.6902201 L85.0663378,39.539476 L84.6947883,39.4067798 C79.5727135,37.6551894 76.7330141,40.1233394 76.7330141,42.8038034 C76.7330141,45.0861787 78.6173006,46.5723766 81.0058329,46.5723766 Z M82.1204813,44.3430798 C80.8200582,44.3430798 80.0238808,43.5734416 80.0238808,42.538411 C80.0238808,41.2379878 81.5100786,40.0702609 84.7478668,41.2114486 L85.0663378,41.3176056 L85.0663378,41.6360765 C85.0663378,43.3611276 83.6862969,44.3430798 82.1204813,44.3430798 Z M97.1151723,46.7050728 C98.8933019,46.7050728 100.246803,46.2008271 101.41453,45.3515712 L99.6629401,43.0426567 C99.0259982,43.6530594 98.150203,43.9980696 97.2478686,43.9980696 C95.1247288,43.9980696 93.8508449,42.432254 93.8508449,40.2825749 C93.8508449,38.1063566 95.1247288,36.540541 97.2478686,36.540541 C98.150203,36.540541 99.0259982,36.8855512 99.6629401,37.4959539 L101.44107,35.1870394 C100.246803,34.3377835 98.9198412,33.8335378 97.1151723,33.8335378 C93.3465992,33.8335378 90.639596,36.6201588 90.639596,40.2825749 C90.639596,43.9184518 93.3465992,46.7050728 97.1151723,46.7050728 Z M125.565267,46.3335233 L118.850837,29.348405 L115.453814,29.348405 L108.739384,46.3335233 L112.348722,46.3335233 L113.728763,42.432254 L120.575888,42.432254 L121.955929,46.3335233 L125.565267,46.3335233 Z M117.152326,32.8515856 L119.647015,39.8844862 L114.657636,39.8844862 L117.152326,32.8515856 Z M135.38481,33.8335378 C133.60668,33.8335378 132.279718,34.5235582 131.377384,35.6116674 L131.111991,34.1520088 L128.351909,34.1520088 L128.351909,51.9067653 L131.51008,51.9067653 L131.51008,45.006561 C132.412414,45.9619739 133.712837,46.5989158 135.38481,46.5989158 C138.54298,46.5989158 141.03767,44.2369228 141.03767,40.2294964 C141.03767,36.2220701 138.54298,33.8335378 135.38481,33.8335378 Z M134.535554,43.9449911 C132.545111,43.9449911 131.191609,42.4057147 131.191609,40.2294964 C131.191609,38.0532781 132.545111,36.4874625 134.535554,36.4874625 C136.499458,36.4874625 137.826421,38.0532781 137.826421,40.2294964 C137.826421,42.4057147 136.499458,43.9449911 134.535554,43.9449911 Z M150.618356,33.8335378 C148.840226,33.8335378 147.513264,34.5235582 146.610929,35.6116674 L146.345537,34.1520088 L143.585455,34.1520088 L143.585455,51.9067653 L146.743625,51.9067653 L146.743625,45.006561 C147.64596,45.9619739 148.946383,46.5989158 150.618356,46.5989158 C153.776526,46.5989158 156.271215,44.2369228 156.271215,40.2294964 C156.271215,36.2220701 153.776526,33.8335378 150.618356,33.8335378 Z M149.7691,43.9449911 C147.778656,43.9449911 146.425155,42.4057147 146.425155,40.2294964 C146.425155,38.0532781 147.778656,36.4874625 149.7691,36.4874625 C151.733004,36.4874625 153.059966,38.0532781 153.059966,40.2294964 C153.059966,42.4057147 151.733004,43.9449911 149.7691,43.9449911 Z M171.000523,46.7050728 C173.734065,46.7050728 176.865696,45.2454142 176.865696,41.5564588 C176.865696,38.902534 174.954871,37.4959539 172.300946,36.5140018 C170.04511,35.7178244 168.850844,34.9747254 168.850844,33.7273808 C168.850844,32.5331147 169.965492,31.710398 171.318994,31.710398 C172.539799,31.710398 173.495212,32.1615652 174.583321,33.1700566 L176.626843,30.9672991 C175.299881,29.7995722 173.627908,28.923777 171.212837,28.923777 C168.213902,28.923777 165.427281,30.9672991 165.427281,33.9131555 C165.427281,36.9120905 167.842352,38.0532781 170.39012,38.9556125 C172.088632,39.5660152 173.335977,40.2294964 173.335977,41.7422335 C173.335977,43.2018921 171.902857,43.8919126 170.628973,43.8919126 C169.169315,43.8919126 167.868892,43.3611276 166.648086,41.8483905 L164.498407,44.1042266 C166.17038,45.8823561 168.26698,46.7050728 171.000523,46.7050728 Z M187.295638,34.1520087 L184.296703,34.1520087 L184.296703,30.6488281 L181.165072,30.6488281 L181.165072,34.1520087 L179.307324,34.1520087 L179.307324,36.5936195 L181.165072,36.5936195 L181.165072,41.5299196 C181.165072,45.9885131 184.164006,46.9173868 187.295638,46.3335233 L187.295638,43.9184518 C185.145959,44.263462 184.296703,43.3876669 184.296703,41.4237626 L184.296703,36.5936195 L187.295638,36.5936195 L187.295638,34.1520087 Z M195.628973,46.7050728 C199.556781,46.7050728 202.263784,43.9184518 202.263784,40.2825749 C202.263784,36.6201588 199.556781,33.8335378 195.628973,33.8335378 C191.701164,33.8335378 188.994161,36.6201588 188.994161,40.2825749 C188.994161,43.9184518 191.701164,46.7050728 195.628973,46.7050728 Z M195.628973,44.0246088 C193.638529,44.0246088 192.231949,42.432254 192.231949,40.2825749 C192.231949,38.1063566 193.638529,36.5140018 195.628973,36.5140018 C197.619416,36.5140018 199.025996,38.1063566 199.025996,40.2825749 C199.025996,42.432254 197.619416,44.0246088 195.628973,44.0246088 Z M211.180989,33.8335378 C209.74787,33.8335378 208.633221,34.8154899 207.943201,35.8505206 L207.571651,34.1520088 L204.81157,34.1520088 L204.81157,46.3335233 L207.96974,46.3335233 L207.96974,40.3091142 C207.96974,38.1594351 209.057849,36.859012 210.915597,36.859012 C211.340225,36.859012 211.738313,36.9386297 212.056784,37.0447867 L212.534491,34.0193125 C212.162941,33.9131555 211.764853,33.8335378 211.180989,33.8335378 Z M225.9899,40.1498787 C225.9899,36.3282271 223.442132,33.8335378 219.832794,33.8335378 C216.090761,33.8335378 213.410297,36.6201588 213.410297,40.2825749 C213.410297,43.9184518 216.064221,46.6785336 220.204344,46.6785336 C222.380562,46.6785336 224.052535,45.9619739 225.220262,44.794247 L223.097122,43.0691959 C222.354023,43.8653733 221.425149,44.2900013 220.151265,44.2900013 C218.134283,44.2900013 216.940017,42.9895782 216.701163,41.0256739 L225.9899,41.0256739 L225.9899,40.1498787 Z M219.832794,36.2220701 C221.584385,36.2220701 222.645955,37.3101792 222.884808,39.008691 L216.780781,39.008691 C217.125791,37.3367184 218.187361,36.2220701 219.832794,36.2220701 Z" id="Combined-Shape" fill="#444444" fill-rule="nonzero"></path>
        <path d="M40.3556128,31.1765033 C40.3934366,28.2939976 41.9324531,25.6314402 44.4334656,24.1216618 C42.8485221,21.8990348 40.2890173,20.540363 37.5270681,20.455512 C34.6212622,20.1560125 31.8042327,22.1628395 30.3234571,22.1628395 C28.8140602,22.1628395 26.5342313,20.4852496 24.0792128,20.5348394 C20.8490683,20.6373115 17.9106986,22.3968958 16.3391666,25.1698124 C12.9926076,30.8591611 15.4888443,39.2206247 18.6946259,43.8195041 C20.2985567,46.0714372 22.1730764,48.5868908 24.6258817,48.4976945 C27.026087,48.3999364 27.9225197,46.9948535 30.8197559,46.9948535 C33.6901178,46.9948535 34.531138,48.4976945 37.0337147,48.4409808 C39.6092595,48.3999364 41.2319439,46.1790479 42.7796304,43.905792 C43.9320531,42.3012118 44.81884,40.5278005 45.4071429,38.6512488 C42.3481844,37.3808662 40.3591727,34.4377271 40.3556128,31.1765033 Z M35.6287527,17.4309909 C37.0330507,15.7756962 37.7248982,13.6480888 37.5573702,11.5 C35.4119347,11.7212587 33.4301529,12.728086 32.0068956,14.3198713 C30.6014925,15.8903833 29.8895193,17.9450345 30.0277913,20.0312782 C32.2019843,20.0532534 34.2663336,19.0948643 35.6287527,17.4309909 Z" id="Combined-Shape" fill="#444444" fill-rule="nonzero"></path>
    </g>
</svg>